<svg xmlns="http://www.w3.org/2000/svg" viewBox="0 0 64 64" width="64" height="64">
  <!-- Background -->
  <rect width="64" height="64" fill="#1e3a8a"/>
  
  <!-- Building structure -->
  <path d="M 16 20 L 32 8 L 48 20 L 48 52 L 16 52 Z" fill="#3b82f6" stroke="#1e3a8a" stroke-width="1.5"/>
  
  <!-- Windows -->
  <!-- Row 1 -->
  <rect x="22" y="26" width="5" height="5" fill="#fbbf24" stroke="#1e3a8a" stroke-width="1"/>
  <rect x="30" y="26" width="5" height="5" fill="#fbbf24" stroke="#1e3a8a" stroke-width="1"/>
  <rect x="38" y="26" width="5" height="5" fill="#fbbf24" stroke="#1e3a8a" stroke-width="1"/>
  
  <!-- Row 2 -->
  <rect x="22" y="35" width="5" height="5" fill="#fbbf24" stroke="#1e3a8a" stroke-width="1"/>
  <rect x="30" y="35" width="5" height="5" fill="#fbbf24" stroke="#1e3a8a" stroke-width="1"/>
  <rect x="38" y="35" width="5" height="5" fill="#fbbf24" stroke="#1e3a8a" stroke-width="1"/>
  
  <!-- Row 3 -->
  <rect x="22" y="44" width="5" height="5" fill="#fbbf24" stroke="#1e3a8a" stroke-width="1"/>
  <rect x="30" y="44" width="5" height="5" fill="#fbbf24" stroke="#1e3a8a" stroke-width="1"/>
  <rect x="38" y="44" width="5" height="5" fill="#fbbf24" stroke="#1e3a8a" stroke-width="1"/>
  
  <!-- Door -->
  <rect x="29" y="46" width="6" height="6" fill="#92400e" stroke="#1e3a8a" stroke-width="1"/>
  <circle cx="34.5" cy="49" r="0.8" fill="#fbbf24"/>
  
  <!-- Roof triangle accent -->
  <path d="M 32 10 L 30 16 L 34 16 Z" fill="#f59e0b"/>
</svg>